<svg width="180" height="180" viewBox="0 0 180 180" fill="none" xmlns="http://www.w3.org/2000/svg">
  <defs>
    <linearGradient id="shell" x1="34" y1="24" x2="138" y2="134" gradientUnits="userSpaceOnUse">
      <stop stop-color="#242B33"/>
      <stop offset="0.56" stop-color="#13171D"/>
      <stop offset="1" stop-color="#0A0D12"/>
    </linearGradient>
    <linearGradient id="screen" x1="54" y1="45" x2="126" y2="97" gradientUnits="userSpaceOnUse">
      <stop stop-color="#04141A"/>
      <stop offset="0.5" stop-color="#071019"/>
      <stop offset="1" stop-color="#081118"/>
    </linearGradient>
    <linearGradient id="glow" x1="60" y1="56" x2="100" y2="76" gradientUnits="userSpaceOnUse">
      <stop stop-color="#3DF5A5"/>
      <stop offset="1" stop-color="#55C8FF"/>
    </linearGradient>
    <linearGradient id="panel" x1="68" y1="108" x2="111" y2="122" gradientUnits="userSpaceOnUse">
      <stop stop-color="#143033"/>
      <stop offset="1" stop-color="#0D1618"/>
    </linearGradient>
  </defs>
  <path d="M79 143C79 152 84 156 90 156C96 156 101 152 101 143" stroke="url(#glow)" stroke-width="6" stroke-linecap="round"/>
  <rect x="62" y="102" width="56" height="34" rx="15" fill="url(#shell)" stroke="#313946" stroke-width="2"/>
  <rect x="80" y="113" width="20" height="12" rx="5" fill="url(#panel)" stroke="#55C8FF" stroke-opacity="0.42" stroke-width="1.5"/>
  <path d="M70 118C63 121 57 126 53 134" stroke="#46505D" stroke-width="4" stroke-linecap="round"/>
  <path d="M110 118C117 121 123 126 127 134" stroke="#46505D" stroke-width="4" stroke-linecap="round"/>
  <circle cx="49" cy="137" r="6.5" fill="#1D242D" stroke="#46505D" stroke-width="2"/>
  <circle cx="131" cy="137" r="6.5" fill="#1D242D" stroke="#46505D" stroke-width="2"/>
  <rect x="38" y="24" width="104" height="94" rx="34" fill="url(#shell)" stroke="#39424D" stroke-width="2.5"/>
  <rect x="54" y="45" width="72" height="52" rx="20" fill="url(#screen)" stroke="#55C8FF" stroke-opacity="0.18" stroke-width="2"/>
  <path d="M90 16V28" stroke="#4A5563" stroke-width="3" stroke-linecap="round"/>
  <circle cx="90" cy="12" r="4.5" fill="#3DF5A5"/>
  <path d="M54 39C64 31 75 27 90 27C105 27 117 31 126 39" stroke="white" stroke-opacity="0.1" stroke-width="2"/>
  <rect x="66" y="60" width="17" height="16" rx="7" fill="#55F0C0"/>
  <rect x="97" y="60" width="17" height="16" rx="7" fill="#55C8FF"/>
  <path d="M72 84C81 94 99 94 108 84" stroke="url(#glow)" stroke-width="3.2" stroke-linecap="round"/>
  <path d="M55 93C66 98 78 101 90 101C103 101 115 98 125 93" stroke="#55C8FF" stroke-opacity="0.35" stroke-width="1.8" stroke-linecap="round"/>
</svg>
