<svg width="96" height="96" viewBox="0 0 96 96" fill="none" xmlns="http://www.w3.org/2000/svg">
  <defs>
    <linearGradient id="frame" x1="12" y1="10" x2="82" y2="86" gradientUnits="userSpaceOnUse">
      <stop stop-color="#A9FFE9"/>
      <stop offset="0.44" stop-color="#4AF0B4"/>
      <stop offset="0.8" stop-color="#55C8FF"/>
      <stop offset="1" stop-color="#2A76FF"/>
    </linearGradient>
    <linearGradient id="panel" x1="19" y1="18" x2="78" y2="82" gradientUnits="userSpaceOnUse">
      <stop stop-color="#3DF5A5" stop-opacity="0.16"/>
      <stop offset="0.58" stop-color="#55C8FF" stop-opacity="0.1"/>
      <stop offset="1" stop-color="#55C8FF" stop-opacity="0.03"/>
    </linearGradient>
  </defs>
  <path d="M24 10H72L86 24V72L72 86H24L10 72V24L24 10Z" fill="#05080C" stroke="url(#frame)" stroke-width="3"/>
  <path d="M28 16H68L80 28V68L68 80H28L16 68V28L28 16Z" fill="url(#panel)"/>
  <path d="M18 30H78" stroke="#55C8FF" stroke-width="2" stroke-linecap="round" opacity="0.14"/>
  <path d="M19 66H77" stroke="#3DF5A5" stroke-width="2" stroke-linecap="round" opacity="0.14"/>
  <path d="M20 28H28V58H20V28Z" fill="#F6FEFF"/>
  <path d="M33 28H53L58 33V48L53 53H33L28 48V33L33 28ZM37 38V44H49V38H37Z" fill="#F6FEFF"/>
  <path d="M52 23H64L56 44H68L42 63L51 43H38L52 23Z" fill="url(#frame)"/>
  <path d="M20 76H54" stroke="url(#frame)" stroke-width="3" stroke-linecap="round"/>
  <circle cx="79" cy="20" r="2.2" fill="#55C8FF"/>
  <circle cx="84" cy="20" r="2.2" fill="#3DF5A5"/>
</svg>
