<svg width="96" height="96" viewBox="0 0 96 96" fill="none" xmlns="http://www.w3.org/2000/svg">
  <rect x="16" y="16" width="64" height="64" rx="18" fill="#070A0E" stroke="url(#stroke)" stroke-width="3"/>
  <rect x="22" y="22" width="52" height="52" rx="15" fill="url(#shell)"/>
  <path d="M30 28H60L57 37H44V43H55L52 52H41V68H32V28Z" fill="#F7FBFF"/>
  <path d="M57 31H65L57 52H67L47 69L55 51H44L57 31Z" fill="url(#stroke)"/>
  <path d="M25 62C33 67 40 69 48 69C57 69 65 67 72 62" stroke="url(#stroke)" stroke-width="2" stroke-linecap="round" opacity="0.75"/>
  <defs>
    <linearGradient id="shell" x1="22" y1="22" x2="74" y2="74" gradientUnits="userSpaceOnUse">
      <stop stop-color="#3DF5A5" stop-opacity="0.18"/>
      <stop offset="0.55" stop-color="#55C8FF" stop-opacity="0.16"/>
      <stop offset="1" stop-color="#FF4F9A" stop-opacity="0.1"/>
    </linearGradient>
    <linearGradient id="stroke" x1="22" y1="20" x2="74" y2="76" gradientUnits="userSpaceOnUse">
      <stop stop-color="#3DF5A5"/>
      <stop offset="0.55" stop-color="#55C8FF"/>
      <stop offset="1" stop-color="#7E8BFF"/>
    </linearGradient>
  </defs>
</svg>
